<svg xmlns="http://www.w3.org/2000/svg" id="Layer_1" data-name="Layer 1" viewBox="0 0 210 100"><path d="M105.23,2.88C109.38,7,112.06,12,114.15,17.3a53.79,53.79,0,0,1,3.1,11.54,45.76,45.76,0,0,1,.52,10c-.09,1.42-.18,2.84-.28,4.28l-.46,0q-11.76,0-23.51,0c-.46,0-.59-.15-.64-.58a50.21,50.21,0,0,1-.18-9.09A53.71,53.71,0,0,1,96.77,16a41.22,41.22,0,0,1,6.4-10.95c.63-.75,1.31-1.45,2-2.17Z"></path><path d="M153.46,24.6c-.06.59-.11,1.19-.16,1.78a38.28,38.28,0,0,1-2.35,10c-.81,2.14-1.78,4.23-2.67,6.34a.58.58,0,0,1-.62.4H119.78c.21-.35.36-.64.54-.91a47.08,47.08,0,0,1,10.38-11,50.16,50.16,0,0,1,14.1-7.67,34.14,34.14,0,0,1,7.85-1.8,3.54,3.54,0,0,1,.46,0l.2,0,.15,1.45Z"></path><path d="M56.54,87.65c.12-.51.21-1,.35-1.51a8.46,8.46,0,0,1,8.89-6.07A9.6,9.6,0,0,1,70,81.44V80.28h4V96.65H70v-1l-1,.47A8.62,8.62,0,0,1,58.13,93.5a8,8,0,0,1-1.5-3.76,1.25,1.25,0,0,0-.09-.25Zm3.93.87a4.77,4.77,0,1,0,4.85-4.74A4.81,4.81,0,0,0,60.47,88.52Z"></path><path d="M153.46,91.79c0,.25-.08.51-.13.76a4.64,4.64,0,0,1-2.82,3.61,10.5,10.5,0,0,1-9-.13,4.94,4.94,0,0,1-2.85-4.32c0-.07,0-.15,0-.25h4.21a3.41,3.41,0,0,1,.08.37,2.21,2.21,0,0,0,1.42,1.83,4.35,4.35,0,0,0,3.23.11,2.84,2.84,0,0,0,1.15-.85,1.12,1.12,0,0,0-.49-1.85,14.74,14.74,0,0,0-2.49-.56,15.75,15.75,0,0,1-4.38-1.16A4.07,4.07,0,0,1,139,85.72a4.73,4.73,0,0,1,3-4.94,9.09,9.09,0,0,1,7.5.06,5.33,5.33,0,0,1,3.15,4c0,.16,0,.33.05.52h-4.05a2.8,2.8,0,0,1-.09-.31c-.22-1.15-.63-1.66-1.76-1.79a14,14,0,0,0-2.5.09,1.25,1.25,0,0,0-.55.22,1.13,1.13,0,0,0,0,2.08,11,11,0,0,0,2.27.67c1.31.31,2.66.47,3.94.86a4.51,4.51,0,0,1,3.19,2.92c.1.3.16.62.24.92Z"></path><path d="M57.22,21.64c1.43.24,2.81.4,4.17.71A48.25,48.25,0,0,1,80.5,31.77a46.55,46.55,0,0,1,9.72,10.48c.18.25.33.51.54.85l-.49,0H62.8a.6.6,0,0,1-.63-.38,51.57,51.57,0,0,1-4.38-12.48,28.73,28.73,0,0,1-.61-8.22C57.19,22,57.2,21.88,57.22,21.64Z"></path><path d="M64.3,46.79h81.84a8.45,8.45,0,0,1-.41.75c-.61.89-1.23,1.79-1.88,2.66a1.43,1.43,0,0,1-.62.29.85.85,0,0,1-.32,0H67.36a1,1,0,0,1-1-.5c-.56-.88-1.16-1.73-1.75-2.59C64.52,47.25,64.44,47.05,64.3,46.79Z"></path><path d="M140.39,54.46a11.92,11.92,0,0,1-3.7,3.28,1.32,1.32,0,0,1-.66.12h-62a1.48,1.48,0,0,1-.91-.32c-1.09-1-2.14-2-3.2-2.94l.09-.13Z"></path><path d="M88.85,81.42v-6.8H93v22H88.86v-1a8.94,8.94,0,0,1-7.89.87A8.49,8.49,0,0,1,77.42,83,8.92,8.92,0,0,1,88.85,81.42Zm0,7.14a4.82,4.82,0,0,0-4.66-4.78,4.74,4.74,0,1,0,0,9.48A4.84,4.84,0,0,0,88.85,88.56Z"></path><path d="M114.12,81.42v-6.8h4v22h-4v-1a8.94,8.94,0,0,1-8.15.75A8.28,8.28,0,0,1,102,93a8.6,8.6,0,0,1,.79-10A8.87,8.87,0,0,1,114.12,81.42Zm0,7.11a4.72,4.72,0,1,0-4.73,4.72A4.84,4.84,0,0,0,114.1,88.53Z"></path><path d="M137,80.29V96.64h-4.09v-1a8.73,8.73,0,0,1-7.62.93,8.56,8.56,0,0,1-4.31-3.3,8.59,8.59,0,0,1,11.9-11.85V80.29Zm-4.1,8.27a4.73,4.73,0,0,0-4.58-4.78,4.74,4.74,0,1,0,0,9.48A4.77,4.77,0,0,0,132.85,88.56Z"></path><path d="M111.84,69.55a38.15,38.15,0,0,1,.57-8h19.15A39.32,39.32,0,0,1,111.84,69.55Z"></path><path d="M98.37,69.54c-7.32-.76-13.69-3.75-19.56-8H98.09A36.11,36.11,0,0,1,98.37,69.54Z"></path><path d="M95,80.27h4V96.64H95Z"></path><path d="M111.22,61.53a38.31,38.31,0,0,1-6,8.57,36,36,0,0,1-6.09-8.57Z"></path><path d="M99,74.62v4.07H95V74.62Z"></path><path d="M151.18,79.28a2.11,2.11,0,0,1-2.05-2.16A2.16,2.16,0,0,1,151.25,75a2.19,2.19,0,0,1,2.08,2.26A2.13,2.13,0,0,1,151.18,79.28ZM153,77.16a1.87,1.87,0,0,0-1.81-1.88,1.86,1.86,0,0,0,0,3.72A1.86,1.86,0,0,0,153,77.16Z"></path><path d="M150.86,77.38a5.53,5.53,0,0,1,0,.71c0,.08-.13.16-.19.24-.07-.09-.18-.17-.18-.26,0-.68,0-1.37,0-2.12.53,0,1.06-.17,1.47.3.22.24.18.48,0,.77.06.48.1.82.13,1.17,0,0-.12.13-.18.13s-.13-.09-.17-.15,0-.09,0-.14C151.65,77.4,151.58,77.34,150.86,77.38Zm0-1v.8c.33-.2.77-.36.76-.47C151.61,76.24,151.23,76.33,150.9,76.34Z"></path></svg>