<svg xmlns="http://www.w3.org/2000/svg" id="Layer_1" data-name="Layer 1" viewBox="0 0 210 100"><path d="M42.47,37.33c-1,3.78-2.44,7.5-3.08,11.34-1.81,10.95,5,19,16.21,19.16a33.69,33.69,0,0,0,9-1.16c18.09-4.77,36.13-9.7,54.18-14.58a5.29,5.29,0,0,0,.7-.43H104.78V33.82l-.58-.07q-1.68,4.35-3.35,8.69c-1,2.61-2,5.21-3,7.85a1.73,1.73,0,0,1-2,1.41c-3-.08-5.91,0-9.15,0,1.31-3.56,2.51-6.84,3.73-10.12,4.1-11,8.23-21.94,12.27-32.93a2.15,2.15,0,0,1,2.5-1.68c2.84.11,5.68,0,8.85,0l-4.67,12.27.31.21,5-6c1.55-1.87,3.06-3.77,4.67-5.59A2.53,2.53,0,0,1,121.12,7c10.33,0,20.66,0,31.38,0-.92,2.43-1.73,4.67-2.67,6.86-.13.31-.91.49-1.39.5-2.37.05-4.75.12-7.11,0-1.68-.1-2.66.32-3.17,2.09-.7,2.42-1.73,4.75-2.69,7.32h10.19c-1,2.71-1.92,5.26-3,7.75-.15.36-1,.61-1.49.62-2.55.06-5.11,0-7.66,0-.5,0-1.28.31-1.43.67-1.32,3.25-2.52,6.55-3.87,10.11h12.33l-1.15,3.54,48.06-13,.25.54a9.21,9.21,0,0,1-1.34.86q-39.89,17.26-79.77,34.47C91,76.08,75.36,82.73,59.64,89.2c-6.54,2.7-13.37,4.64-20.59,3.55-6.26-.94-11.65-3.53-15-9.17-2.21-3.71-2-7.8-1.23-11.88a50.26,50.26,0,0,1,7.61-17.62c3.76-5.79,7.89-11.34,11.86-17Zm88.21-29a3.31,3.31,0,0,0-.68.4c-4.84,5.29-9.69,10.57-14.47,15.9a3.12,3.12,0,0,0-.6,2c.08,4.86.26,9.72.36,14.58,0,2.19,0,4.38,0,6.57l.56,0Z"></path><path d="M44.76,51.66c1.87-5,3.59-9.73,5.36-14.43C53.74,27.63,57.39,18,61,8.42A1.83,1.83,0,0,1,63,7c3.15.08,6.3,0,9.79,0-.42,6.36-.82,12.56-1.26,19.3a11.58,11.58,0,0,0,.76-1.35c2.11-5.56,4.18-11.14,6.33-16.69.19-.5.8-1.19,1.23-1.2C83,6.93,86.18,7,89.63,7c-.77,2.09-1.44,3.95-2.14,5.81q-7,18.66-14,37.34a2,2,0,0,1-2.22,1.58c-3.2-.08-6.41,0-9.79,0L62.7,33l-.35-.12c-.34.86-.67,1.73-1,2.6-1.85,4.94-3.72,9.88-5.52,14.85a1.76,1.76,0,0,1-2,1.38C50.94,51.61,48,51.66,44.76,51.66Z"></path><path d="M91,7.07h10.55c-1.42,3.83-2.77,7.52-4.15,11.19C93.58,28.54,89.66,38.8,85.87,49.1c-.7,1.9-1.52,2.86-3.73,2.63-2.5-.25-5,0-7.87,0Z"></path></svg>