<svg xmlns="http://www.w3.org/2000/svg" id="Layer_1" data-name="Layer 1" viewBox="0 0 210 100"><path d="M71.26,46.4l7-3.56c5.24,7.83,13.64,9.42,19.9,7.28q-11.61-16-.12-32.06c-4.85-2.38-14.57-1-19.93,7.49l-7-3.61a23,23,0,0,1,7-7.9c8-5.63,16.53-6.52,25.45-2.41a3.14,3.14,0,0,0,3.11,0c11.22-5.66,25.85-1.2,32,9.72a4.92,4.92,0,0,1,.27.64l-6.88,3.58C126.57,17,117.2,15.8,112,18c7.64,10.7,7.73,21.38,0,32.06,6.36,2.78,13.18.34,19.9-7.19l6.92,3.53a22.23,22.23,0,0,1-4.95,6.19A24.83,24.83,0,0,1,106,56.32a2.59,2.59,0,0,0-2,0,24.91,24.91,0,0,1-32.37-9.21C71.55,47,71.47,46.8,71.26,46.4Zm33.82-23.85c-6.91,6.51-5.72,18.14.08,23C111.28,39.55,111.28,28.55,105.08,22.55Z"></path><path d="M129.43,90.28c-2.23.64-3.61-.07-4.86-1.94-2.8-4.21-5.85-8.25-8.8-12.35-.31-.43-.65-.84-1.21-1.57V90.36h-4.15V68.88c1.77,0,3.56,0,5.35,0,.37,0,.78.53,1,.9,2.39,3.3,4.74,6.63,7.1,10a5.26,5.26,0,0,0,1.42,1.49V69h4.11Z"></path><path d="M81.91,90.45c1.34-3,2.57-5.84,3.81-8.65,1.71-3.85,3.47-7.68,5.12-11.56.42-1,.89-1.48,2-1.38,1.46.12,3.26-.43,4.31.25s1.36,2.51,2,3.85q3.52,7.85,7,15.69c.24.53.43,1.07.69,1.72H101.9a6.39,6.39,0,0,1-.57-1.18c-.58-2.57-2.17-3.29-4.7-3a48.73,48.73,0,0,1-6.62,0c-.86,0-1.47.18-1.65,1.06-.57,2.77-2.29,3.68-5,3.17A10,10,0,0,0,81.91,90.45Zm8.9-8.7h7.35l-3.76-8.4Z"></path><path d="M153.66,86.13v4.25H137.28V69h14.86v4.27H141.43v4.2h9.85v4.39h-9.83v4.28Z"></path><path d="M63.51,81.11v9.22H59.42V69h4V76.5H74.33V69h4.13v21.4h-4V81.11Z"></path><path d="M51.49,82.54l3.29,2.34A10.58,10.58,0,0,1,43.2,90.73,11.21,11.21,0,0,1,43,68.92a10.6,10.6,0,0,1,11.88,6l-3.28,2.34c-2.74-3.85-5-4.86-8.25-3.85a6.8,6.8,0,0,0-4.65,6.34,6.89,6.89,0,0,0,4.45,6.5C46.25,87.29,48.66,86.26,51.49,82.54Z"></path><path d="M159.65,90.35V69.58a4.52,4.52,0,0,1,.09-.63h4.13V86.16h11.64v4.19Z"></path></svg>