<svg xmlns="http://www.w3.org/2000/svg" xmlns:xlink="http://www.w3.org/1999/xlink" id="Layer_1" x="0px" y="0px" viewBox="0 0 404 350" style="enable-background:new 0 0 404 350;" xml:space="preserve"><style type="text/css">	.st0{fill:none;stroke:#000000;stroke-miterlimit:10;}	.st1{fill:none;stroke:#ED1C24;stroke-miterlimit:10;}	.st2{fill:none;stroke:#ED1C24;stroke-miterlimit:10;stroke-dasharray:5.0977,5.0977;}	.st3{fill:none;stroke:#ED1C24;stroke-miterlimit:10;stroke-dasharray:5.9976,5.9976;}	.st4{fill:none;stroke:#ED1C24;stroke-miterlimit:10;stroke-dasharray:5.7121,5.7121;}	.st5{fill:none;stroke:#ED1C24;stroke-miterlimit:10;stroke-dasharray:5.7145,5.7145;}	.st6{fill:none;stroke:#39B54A;stroke-miterlimit:10;}	.st7{fill:none;stroke:#ED1C24;stroke-miterlimit:10;stroke-dasharray:6.2581,6.2581;}	.st8{fill:none;stroke:#000000;stroke-width:0.75;stroke-miterlimit:10;}	.st9{fill:none;stroke:#ED1C24;stroke-width:0.75;stroke-miterlimit:10;}	.st10{fill:none;stroke:#ED1C24;stroke-width:0.75;stroke-miterlimit:10;stroke-dasharray:5.7422,5.7422;}</style><g>	<path class="st0" d="M107.53,89.97v54.62C107.53,152.41,107.53,82.15,107.53,89.97z"></path>	<g>		<g>			<polyline class="st1" points="296.47,271.71 296.47,274.71 293.47,274.71    "></polyline>			<line class="st2" x1="288.37" y1="274.71" x2="270.53" y2="274.71"></line>			<polyline class="st1" points="267.98,274.71 264.98,274.71 264.98,271.71    "></polyline>			<line class="st3" x1="264.98" y1="265.72" x2="264.98" y2="196.74"></line>			<polyline class="st1" points="264.98,193.74 264.98,190.74 267.98,190.74    "></polyline>			<line class="st2" x1="273.07" y1="190.74" x2="290.92" y2="190.74"></line>			<polyline class="st1" points="293.47,190.74 296.47,190.74 296.47,193.74    "></polyline>			<line class="st3" x1="296.47" y1="199.74" x2="296.47" y2="268.71"></line>		</g>	</g>	<g>		<g>			<polyline class="st1" points="265,271.71 265,274.71 262,274.71    "></polyline>			<line class="st4" x1="256.29" y1="274.71" x2="144.9" y2="274.71"></line>			<polyline class="st1" points="142.05,274.71 139.05,274.71 139.05,271.71    "></polyline>			<line class="st3" x1="139.05" y1="265.72" x2="139.05" y2="196.74"></line>			<polyline class="st1" points="139.05,193.74 139.05,190.74 142.05,190.74    "></polyline>			<line class="st4" x1="147.76" y1="190.74" x2="259.15" y2="190.74"></line>			<polyline class="st1" points="262,190.74 265,190.74 265,193.74    "></polyline>			<line class="st3" x1="265" y1="199.74" x2="265" y2="268.71"></line>		</g>	</g>	<g>		<g>			<polyline class="st1" points="265.03,46.81 265.03,43.81 262.03,43.81    "></polyline>			<line class="st5" x1="256.31" y1="43.81" x2="144.88" y2="43.81"></line>			<polyline class="st1" points="142.02,43.81 139.02,43.81 139.02,46.81    "></polyline>			<line class="st2" x1="139.02" y1="51.9" x2="139.02" y2="69.75"></line>			<polyline class="st1" points="139.02,72.29 139.02,75.29 142.02,75.29    "></polyline>			<line class="st5" x1="147.74" y1="75.29" x2="259.17" y2="75.29"></line>			<polyline class="st1" points="262.03,75.29 265.03,75.29 265.03,72.29    "></polyline>			<line class="st2" x1="265.03" y1="67.2" x2="265.03" y2="49.36"></line>		</g>	</g>	<g>		<g>			<polyline class="st1" points="265.03,277.71 265.03,274.71 262.03,274.71    "></polyline>			<line class="st5" x1="256.31" y1="274.71" x2="144.88" y2="274.71"></line>			<polyline class="st1" points="142.02,274.71 139.02,274.71 139.02,277.71    "></polyline>			<line class="st2" x1="139.02" y1="282.81" x2="139.02" y2="300.65"></line>			<polyline class="st1" points="139.02,303.2 139.02,306.2 142.02,306.2    "></polyline>			<line class="st5" x1="147.74" y1="306.2" x2="259.17" y2="306.2"></line>			<polyline class="st1" points="262.03,306.2 265.03,306.2 265.03,303.2    "></polyline>			<line class="st2" x1="265.03" y1="298.1" x2="265.03" y2="280.26"></line>		</g>	</g>	<path class="st6" d="M132.29,310.28l-1.56-1.58l-27.28-0.71v-29.56l-32.54-0.18v-15.77l-2.58-1.17v-17.58l2.58-1.17V222.9  l-2.58-1.17v-17.58l2.58-1.17v-16l32.54-0.18v-29.45l5.01-0.13c-3.23-3.43-5.01-7.9-5.01-12.63V89.97c0-4.2,1.4-8.19,3.97-11.43  c-2.27-0.48-3.97-2.5-3.97-4.91c0-18.69,15.21-33.9,33.9-33.9H260.9l4.08-0.01h1.67c18.69,0,33.9,15.21,33.9,33.9  c0,2.41-1.7,4.43-3.97,4.91c2.57,3.24,3.97,7.24,3.97,11.43v54.62c0,4.78-1.82,9.3-5.12,12.75l5.12,0.13v29.45l32.54,0.18v15.89  l2.58,1.17v17.58l-2.58,1.17v19.67l2.58,1.17v17.58l-2.58,1.17v15.89l-32.49,0.18v29.45l-27.28,0.71l-1.56,1.58H132.29z"></path>	<g>		<g>			<polyline class="st1" points="264.45,156.26 264.45,159.26 261.45,159.26    "></polyline>			<line class="st7" x1="255.19" y1="159.26" x2="145.68" y2="159.26"></line>			<polyline class="st1" points="142.55,159.26 139.55,159.26 139.55,156.26    "></polyline>			<line class="st3" x1="139.55" y1="150.26" x2="139.55" y2="81.29"></line>			<polyline class="st1" points="139.55,78.29 139.55,75.29 142.55,75.29    "></polyline>			<line class="st7" x1="148.81" y1="75.29" x2="258.32" y2="75.29"></line>			<polyline class="st1" points="261.45,75.29 264.45,75.29 264.45,78.29    "></polyline>			<line class="st3" x1="264.45" y1="84.28" x2="264.45" y2="153.26"></line>		</g>	</g>	<g>		<g>			<polyline class="st1" points="264.98,162.26 264.98,159.26 261.98,159.26    "></polyline>			<line class="st4" x1="256.26" y1="159.26" x2="144.88" y2="159.26"></line>			<polyline class="st1" points="142.02,159.26 139.02,159.26 139.02,162.26    "></polyline>			<line class="st2" x1="139.02" y1="167.35" x2="139.02" y2="185.2"></line>			<polyline class="st1" points="139.02,187.74 139.02,190.74 142.02,190.74    "></polyline>			<line class="st4" x1="147.74" y1="190.74" x2="259.12" y2="190.74"></line>			<polyline class="st1" points="261.98,190.74 264.98,190.74 264.98,187.74    "></polyline>			<line class="st2" x1="264.98" y1="182.65" x2="264.98" y2="164.8"></line>		</g>	</g>	<polygon class="st0" points="296.47,189.29 264.98,190.74 264.98,159.26 270,159.26 271.51,160.79 296.47,161.44  "></polygon>	<polygon class="st0" points="107.53,189.18 139.02,190.63 139.02,159.14 134,159.14 132.49,160.68 107.53,161.33  "></polygon>	<g>		<rect x="263.02" y="245.2" class="st8" width="1.72" height="14.64"></rect>		<rect x="263.02" y="205.62" class="st8" width="1.72" height="14.64"></rect>	</g>	<g>		<g>			<line class="st9" x1="298.54" y1="272.47" x2="298.54" y2="269.47"></line>			<line class="st10" x1="298.54" y1="263.73" x2="298.54" y2="197.69"></line>			<line class="st9" x1="298.54" y1="194.82" x2="298.54" y2="191.82"></line>		</g>	</g>	<g>		<g>			<polyline class="st1" points="107.56,271.71 107.56,274.71 110.56,274.71    "></polyline>			<line class="st2" x1="115.66" y1="274.71" x2="133.5" y2="274.71"></line>			<polyline class="st1" points="136.05,274.71 139.05,274.71 139.05,271.71    "></polyline>			<line class="st3" x1="139.05" y1="265.72" x2="139.05" y2="196.74"></line>			<polyline class="st1" points="139.05,193.74 139.05,190.74 136.05,190.74    "></polyline>			<line class="st2" x1="130.95" y1="190.74" x2="113.11" y2="190.74"></line>			<polyline class="st1" points="110.56,190.74 107.56,190.74 107.56,193.74    "></polyline>			<line class="st3" x1="107.56" y1="199.74" x2="107.56" y2="268.71"></line>		</g>	</g>	<g>		<g>			<line class="st9" x1="105.49" y1="272.47" x2="105.49" y2="269.47"></line>			<line class="st10" x1="105.49" y1="263.73" x2="105.49" y2="197.69"></line>			<line class="st9" x1="105.49" y1="194.82" x2="105.49" y2="191.82"></line>		</g>	</g>	<g>		<rect x="139.02" y="244.98" class="st8" width="1.72" height="14.64"></rect>		<rect x="139.02" y="205.4" class="st8" width="1.72" height="14.64"></rect>	</g>	<path class="st0" d="M139.02,274.6h-31.49l-1.05-0.24L75,274.19v-14.34l-2.58-1.17v-12.32l2.58-1.17v-24.94l-2.58-1.17v-12.31  l2.58-1.17v-14.58l31.49-0.17l1.05-0.23h31.49l-31.49-1.45v-27.85l24.96-0.65l1.49-1.52l-12.36-0.23  c-7.83-0.14-14.09-6.52-14.09-14.34V89.97c0-7.83,6.27-14.21,14.09-14.35l17.92-0.33h-0.52l-1.92-0.72h-28.63  c-0.51,0-0.94-0.43-0.94-0.95c0-16.47,13.35-29.81,29.82-29.81h1.67h125.96V43.8h1.67c8.23,0,15.68,3.34,21.09,8.73  c5.4,5.41,8.73,12.86,8.73,21.09c0,0.51-0.43,0.94-0.94,0.94H266.9l-1.87,0.71v0.02l17.35,0.33c7.83,0.14,14.09,6.52,14.09,14.34  v54.62c0,7.83-6.27,14.21-14.09,14.35l-17.4,0.33h5.01l1.52,1.54l24.96,0.64v27.85L265,190.74 M139.04,274.71h-0.02l-31.49,1.46  v27.85l24.96,0.64l1.52,1.54h5.01h126.01h5.01l1.52-1.54l24.95-0.64v-27.85l-31.48-1.46h31.43l1.05-0.23l31.49-0.17v-14.46  l2.58-1.17v-12.32l-2.58-1.17v-24.94l2.58-1.17v-12.31l-2.58-1.17v-14.46l-31.49-0.17l-1.05-0.24H265h-0.02 M139.02,159.25v0.01  h0.09L139.02,159.25z M139.04,190.74h-0.02"></path></g></svg>