<svg xmlns="http://www.w3.org/2000/svg" xmlns:xlink="http://www.w3.org/1999/xlink" id="Layer_1" x="0px" y="0px" viewBox="0 0 512 262" style="enable-background:new 0 0 512 262;" xml:space="preserve"><style type="text/css">	.st0{fill-rule:evenodd;clip-rule:evenodd;fill:#293453;}	.st1{fill:#293453;}	.st2{fill:#FF931E;}</style><path class="st0" d="M199.63,128.46L199.63,128.46c-1.79-0.57-3.37-1.84-5.06-2.76c-6.74-3.72-14.3-5.7-22-5.76 c-4.76,0.09-5-0.37-4-4.82c2.3-12.54,3.03-25.33,2.16-38.05c-1.15-13.31-5.03-26.25-11.38-38c-0.83-1-1.7-2.09-1.6-3.65 c1.41-0.76,1.91,0.21,3,0.55c28.44,16.44,46,52.46,40.91,84.87c-0.22,0.71,0,1.22-0.18,1.92l-1.82,5.76L199.63,128.46z"></path><path class="st0" d="M24.69,73.35L24.69,73.35c1.8,0.57,3.82,0.43,6.09,0.75c7.63,0.82,14.93,3.52,21.26,7.86 c3.88,2.82,4,2.46,6.06-1.65c5.01-11.77,11.79-22.7,20.1-32.42c8.36-10.48,19-18.91,31.12-24.64c0.93-0.49,2.6-0.74,3-2.18 c-0.36-1.32-1.68-0.92-2.74-1.26c-32.7-2.82-67.37,16.74-81.76,46.26c-0.55,0.61-0.67,1-1.28,1.57l-1.81,5.76L24.69,73.35z"></path><path class="st0" d="M144.89,8.35L144.89,8.35c2.46,4.73-3.75,11.89-3,16.87c0.39,2.49,4.24,2.93,6.4,4.81 c6.31,6.33,10.17,14.26,12.68,22.57c6.14,18.15,5.86,36.68,3.2,55.2c-0.12,2.69-0.45,5.36-1,8c-0.56,1.79-0.9,2.85-3.07,1 c-11.5-8.78-24.48-15.24-37.71-21c-10.81-4.6-22.18-6.2-34-7.53c-7.02-0.81-14.09-1.05-21.15-0.73c-2.72-0.08-3.12-1.41-2.09-3.45 c2.23-5.27,4.79-10.4,7.67-15.35c8.36-14,18.05-27.14,32-36.21c6.74-5,14.06-9.42,22.77-9.47c7.27-0.46,7.16-0.11,9.79-7.19 c1-3.25,0.63-6.94,4.28-8.54l3.25,1L144.89,8.35z"></path><polygon class="st1" points="70.51,163.43 50,175.27 50,198.93 70.51,210.77 91,198.93 91,175.27 "></polygon><polygon class="st1" points="88,131.83 88,162.49 70.83,152.58 41,169.8 41,204.23 14,219.81 14,154.59 70.71,121.86 "></polygon><polygon class="st1" points="126.86,219.67 70.43,252.25 14,219.67 40.52,204.37 70.43,221.63 100.34,204.37 "></polygon><polygon class="st1" points="126,108.45 126.96,220.7 100,205.14 98.64,94.15 "></polygon><path class="st1" d="M116.75,112.3"></path><path class="st1" d="M136,156.23V141h8v15c0,4.7,1.92,6.58,5.01,6.58S154,160.7,154,156v-15h8v15.23c0,8.19-4.82,12.78-12.99,12.78 S136,164.4,136,156.23z"></path><path class="st1" d="M203,155.97V168h-7v-10.93c0-3.06-1.27-4.36-3.25-4.36c-2.17,0-3.75,1.45-3.75,4.75V168h-8v-10.93 c0-3.06-1.21-4.36-3.22-4.36c-2.21,0-3.78,1.45-3.78,4.75V168h-7v-21h7v2.21c1.65-1.7,3.94-2.63,6.31-2.56 c2.69-0.16,5.28,1.09,6.82,3.3c1.8-2.16,4.5-3.38,7.32-3.3C199.37,146.61,203,149.45,203,155.97z"></path><path class="st1" d="M231.6,157.62c0,6.78-4.67,11-10.43,11c-2.78,0-5.17-2.46-5.17-2.46V168h-8v-29h7v9.88 c1.85-1.52,4-2.32,6.19-2.2C226.93,146.68,231.6,150.88,231.6,157.62z M224.07,157.62c0-3.21-2-5-4.47-5s-4.47,1.81-4.47,5 s2,5.1,4.47,5.1S224.07,160.87,224.07,157.62z"></path><path class="st1" d="M249,146.61v6.7c-0.58-0.08-1.16-0.12-1.74-0.12c-3.1,0-5.26,1.58-5.26,5.42V168h-7v-21h7v2.54 C243.5,147.59,245.92,146.61,249,146.61z"></path><path class="st1" d="M273.74,160H258.3c0.62,2.16,2.47,3.41,5.21,3.41c1.81,0.06,3.58-0.6,4.9-1.84l3.92,4.08 c-2,2.27-5,3.44-9.06,3.44c-7.56,0-12.46-4.66-12.46-11s5-10.94,11.68-10.94c6.27,0,11.37,4,11.37,11 C273.82,158.71,273.82,159.41,273.74,160z M258.18,156h8.7c-0.43-2.4-2.73-4-5.13-3.57C259.93,152.76,258.51,154.18,258.18,156z"></path><path class="st1" d="M278,139h7v29h-7V139z"></path><path class="st1" d="M290,139h7v29h-7V139z"></path><path class="st1" d="M322,156.77V169h-7v-2.84c-1.07,2.07-3.21,3.2-6.33,3.2c-5.13,0-7.98-2.96-7.98-6.78 c0-4.06,2.88-6.58,9.52-6.58h4.28c-0.12-2.24-1.58-3.49-4.55-3.49c-2.08-0.01-4.12,0.66-5.81,1.91l-2.53-5.25 c2.86-1.73,6.13-2.62,9.45-2.56C318.03,146.61,322,149.78,322,156.77z M314,161.84V160h-3.22c-2.39,0-3.25,0.86-3.25,2.16 s1,2.15,2.78,2.15c1.65,0.1,3.16-0.92,3.69-2.49V161.84z"></path><path class="st1" d="M331.41,155.66c0-8.82,6.75-15.07,15.94-15.07c5.34,0,9.64,2,12.46,5.46l-5.22,4.72 c-1.62-2.14-4.15-3.39-6.83-3.39c-4.76,0-8.07,3.31-8.07,8.28s3.31,8.28,8.07,8.28c2.68,0,5.21-1.26,6.83-3.4l5.22,4.72 c-2.82,3.52-7.12,5.47-12.46,5.47C338.16,170.73,331.41,164.48,331.41,155.66z"></path><path class="st1" d="M386,148v22h-7v-2.35c-1.71,1.79-4.11,2.78-6.59,2.72c-5.44,0-9.41-3.08-9.41-10.07V148h7v11.26 c0,3.48,1.37,4.85,3.74,4.85c2.37,0,4.26-1.54,4.26-5.3V148H386z"></path><path class="st1" d="M389.46,168.2l2.36-5.38c2.38,1.36,5.08,2.08,7.82,2.07c2.65,0,3.52-0.58,3.52-1.53c0-3-13.25,0.41-13.25-8.57 c0-4.22,3.89-7.45,10.93-7.45c3.06-0.06,6.09,0.59,8.86,1.9l-2.36,5.34c-1.98-1.1-4.2-1.66-6.46-1.65c-2.65,0-3.6,0.74-3.6,1.57 c0,3.1,13.21-0.25,13.21,8.65c0,4.14-3.81,7.37-11.1,7.37C395.58,170.52,391.65,169.57,389.46,168.2z"></path><path class="st1" d="M429.79,168.82c-1.7,0.91-3.62,1.35-5.55,1.28c-5.84,0-9.24-2.81-9.24-8.57V154h-3v-6h3v-5h8v5h5v6h-5v7.45 c-0.16,1.25,0.73,2.39,2,2.55c0.13,0.02,0.26,0.02,0.4,0.02c0.87,0.01,1.71-0.24,2.44-0.71L429.79,168.82z"></path><path class="st1" d="M430.32,158.89c0-6.75,5.34-11.55,12.67-11.55s12.67,4.8,12.67,11.55s-5.26,11.63-12.67,11.63 S430.32,165.68,430.32,158.89z M447.71,158.89c0-3.4-2-5.3-4.72-5.3s-4.72,1.9-4.72,5.3s2.07,5.38,4.72,5.38 S447.71,162.32,447.71,158.89z"></path><path class="st1" d="M498,157.42V170h-8v-11.4c-0.26-3.23-1.59-4.6-3.66-4.6c-2.28,0-3.93,1.53-3.34,5v12h-9v-11.54 c0-3.23-1.21-4.6-3.21-4.6c-2.2,0-3.79,1.53-3.79,5V170h-8v-22h8v2.31c1.76-1.78,4.22-2.75,6.76-2.68c2.88-0.17,5.65,1.14,7.29,3.45 c1.93-2.27,4.82-3.54,7.85-3.45C494.12,147.64,498,150.6,498,157.42z"></path><path class="st2" d="M178.27,194c0,10.44-7.98,17-20.55,17H151v11h-15v-45h21.7C170.27,177,178.27,183.58,178.27,194z M162.12,194 c0-3.12-1.92-5-5.87-5H151v10h5.24c3.95,0,5.84-1.89,5.84-5H162.12z"></path><path class="st2" d="M216,202.96V222h-13v-4.66c-1.61,3.56-4.88,5.3-9.61,5.3c-8.29,0-12.56-4.9-12.56-10.98 c0-6.85,4.95-10.66,15.48-10.66h5.64c-0.44-2.72-2.42-4.13-6.38-4.13c-3.09-0.01-6.12,0.95-8.67,2.78l-4.46-9.63 c3.96-2.58,9.97-4.01,15.23-4.01C209.31,185.97,216,191.2,216,202.96z M202,210.41V208h-3.55c-3.05,0-4.39,1-4.39,2.92 c0,1.59,1.27,2.8,3.43,2.8C199.58,213.78,201.44,212.42,202,210.41L202,210.41z"></path><path class="st2" d="M221.31,204.63c0-10.54,8.51-18,20.51-18c8.44,0,14.79,3.87,17.08,10.29l-11.08,5.49 c-1.46-3.24-3.56-4.58-6-4.58c-3.24,0-5.91,2.29-5.91,6.8s2.67,6.86,5.91,6.86c2.47,0,4.57-1.34,6-4.58l11.11,5.46 c-2.29,6.42-8.64,10.29-17.08,10.29C229.82,222.66,221.31,215.23,221.31,204.63z"></path><path class="st2" d="M278.82,211.36l-1.82,2.47V222h-15v-47h14v22.39L286.55,187h17l-14.35,15.29L304.62,222h-17.34L278.82,211.36z"></path><path class="st2" d="M341,202.96V222h-13v-4.66c-1.6,3.56-4.81,5.3-9.56,5.3c-8.27,0-12.52-4.9-12.52-10.98 c0-6.85,4.94-10.66,15.42-10.66h5.69c-0.43-2.72-2.4-4.13-6.35-4.13c-3.08-0.01-6.09,0.96-8.64,2.78l-4.44-9.67 c3.94-2.58,9.93-4.01,15.18-4.01C334.33,185.97,341,191.2,341,202.96z M327,210.41V208h-3.56c-3.05,0-4.38,1-4.38,2.92 c0,1.59,1.27,2.8,3.43,2.8C324.57,213.78,326.43,212.42,327,210.41z"></path><path class="st2" d="M387,187.04v27.78c0,13.46-7.68,19.87-20.62,19.87c-6.69,0-12.76-1.46-16.98-4.32l4.7-9.78 c3.2,2.22,6.98,3.41,10.85,3.43c5.76,0,8.05-2.6,8.05-7.24v-0.38c0,0-5.86,3.68-10.12,3.68c-8.82,0-16.7-6.47-16.7-16.76 s7.88-16.7,16.7-16.7c4.77,0,8.13,1.46,10.12,4.57V187L387,187.04z M372.6,203c0-3.56-2.83-5.77-6.49-5.51 c-3.05,0.22-5.56,2.75-5.42,5.8c0.15,3.21,2.7,5.3,5.99,5.3c3.39,0,5.94-2.23,5.94-5.59H372.6z"></path><path class="st2" d="M393.96,180.3c0-3.07,2.5-5.43,6.42-5.43s6.44,2.2,6.44,5.2c0,3.26-2.5,5.62-6.42,5.62 S393.96,183.37,393.96,180.3z"></path><rect x="393" y="187" class="st2" width="14" height="35"></rect><path class="st2" d="M452,202.02V222h-14v-17.38c0-4.32-1.71-6-4.41-6c-3.02,0-5.59,1.84-5.59,7V222h-14v-35h13v3.45 c2.83-2.73,6.66-4.2,10.6-4.09C445.69,186.37,452,191.03,452,202.02z"></path><path class="st2" d="M498,187.04v27.78c0,13.46-8.23,19.87-22.1,19.87c-7.17,0-13.67-1.46-18.19-4.32l5.05-9.78 c3.43,2.22,7.47,3.41,11.61,3.43c6.17,0,8.62-2.6,8.62-7.24v-0.38c0,0-4.77,3.68-9.03,3.68c-8.82,0-16.69-6.47-16.69-16.76 s7.87-16.7,16.69-16.7c4.77,0,8.13,1.46,10.03,4.57V187L498,187.04z M483.69,203.36c0-3.37-2.54-5.53-5.91-5.53s-6,2.16-6,5.53 s2.6,5.59,6,5.59S483.69,206.72,483.69,203.36L483.69,203.36z"></path></svg>